<svg width="30" height="30" viewBox="0 0 30 30" fill="none" xmlns="http://www.w3.org/2000/svg">
<path d="M15.0469 26.2031C8.85937 26.2031 3.84375 21.1875 3.84375 15C3.84375 8.8125 8.85937 3.79688 15.0469 3.79688C21.2344 3.79688 26.25 8.8125 26.25 15C26.25 21.1406 21.2344 26.2031 15.0469 26.2031ZM15.0469 4.96875C9.5625 4.96875 5.06249 9.46874 5.06249 14.9531C5.06249 20.4375 9.5625 24.9375 15.0469 24.9375C20.5312 24.9375 25.0312 20.4375 25.0312 14.9531C25.0312 9.46874 20.5312 4.96875 15.0469 4.96875Z" fill="#282828" fill-opacity="0.78"/>
<path d="M10.1719 20.7187L9.28125 19.8281L19.875 9.23438L20.7656 10.125L10.1719 20.7187Z" fill="#282828" fill-opacity="0.78"/>
<path d="M19.875 20.7187L9.28125 10.125L10.1719 9.23438L20.7656 19.8281L19.875 20.7187Z" fill="#282828" fill-opacity="0.78"/>
</svg>
