<svg width="30" height="30" viewBox="0 0 30 30" fill="none" xmlns="http://www.w3.org/2000/svg">
<path d="M29 15C29 22.732 22.732 29 15 29C7.26801 29 1 22.732 1 15C1 7.26801 7.26801 1 15 1C22.732 1 29 7.26801 29 15Z" stroke="#E5E5E5" stroke-width="2"/>
<path fill-rule="evenodd" clip-rule="evenodd" d="M14.9997 7.39539C17.0648 7.39539 17.3243 7.40376 18.135 7.44143C18.7659 7.4535 19.3902 7.57288 19.9811 7.79446C20.486 7.99022 20.9446 8.28913 21.3276 8.6721C21.7106 9.05506 22.0095 9.51367 22.2053 10.0186C22.4264 10.6082 22.5457 11.231 22.5583 11.8605C22.596 12.6712 22.6043 12.9307 22.6043 14.9959C22.6043 17.061 22.596 17.3205 22.5583 18.1312C22.5462 18.7621 22.4268 19.3864 22.2053 19.9772C22.0095 20.4822 21.7106 20.9408 21.3276 21.3238C20.9446 21.7068 20.486 22.0057 19.9811 22.2014C19.3918 22.424 18.769 22.5448 18.1392 22.5586C17.3285 22.5963 17.069 22.6047 15.0039 22.6047C12.9387 22.6047 12.6792 22.5963 11.8685 22.5586C11.2376 22.5466 10.6133 22.4272 10.0225 22.2056C9.51749 22.0098 9.05888 21.7109 8.67591 21.328C8.29295 20.945 7.99405 20.4864 7.79828 19.9814C7.57574 19.3921 7.45495 18.7693 7.44106 18.1396C7.40339 17.3289 7.39502 17.0693 7.39502 15.0042C7.39502 12.9391 7.40339 12.6796 7.44106 11.8689C7.45314 11.238 7.57251 10.6137 7.79409 10.0228C7.98937 9.51708 8.28806 9.05766 8.67105 8.67395C9.05404 8.29024 9.51289 7.99069 10.0183 7.79446C10.6078 7.57335 11.2306 7.45398 11.8601 7.44143C12.675 7.40376 12.9346 7.39539 14.9997 7.39539ZM18.0694 8.81027C17.2685 8.77399 17.0271 8.76562 14.9997 8.76562C12.9722 8.76562 12.728 8.77399 11.9299 8.81027C11.4469 8.81521 10.9683 8.903 10.515 9.0698C10.1865 9.19647 9.88812 9.39054 9.63915 9.63951C9.39017 9.88849 9.1961 10.1869 9.06944 10.5154C8.90247 10.9677 8.81422 11.4453 8.80851 11.9275C8.77223 12.7284 8.76386 12.9698 8.76386 14.9972C8.76386 17.0247 8.77223 17.2689 8.80851 18.067C8.81358 18.551 8.90184 19.0306 9.06944 19.4847C9.1961 19.8132 9.39017 20.1116 9.63915 20.3606C9.88812 20.6095 10.1865 20.8036 10.515 20.9303C10.9674 21.0972 11.445 21.1855 11.9271 21.1912C12.728 21.2275 12.9694 21.2359 14.9969 21.2359C17.0243 21.2359 17.2685 21.2275 18.0666 21.1912C18.5507 21.1861 19.0302 21.0979 19.4843 20.9303C19.8129 20.8036 20.1112 20.6095 20.3602 20.3606C20.6092 20.1116 20.8032 19.8132 20.9299 19.4847C21.0969 19.0323 21.1851 18.5547 21.1908 18.0726C21.2271 17.2717 21.2355 17.0303 21.2355 15.0028C21.2355 12.9754 21.2271 12.7312 21.1908 11.9331C21.1858 11.449 21.0975 10.9695 20.9299 10.5154C20.8032 10.1869 20.6092 9.88849 20.3602 9.63951C20.1112 9.39054 19.8129 9.19647 19.4843 9.0698C19.0319 8.90331 18.5543 8.81553 18.0722 8.81027H18.0694ZM14.9997 17.5354C15.5011 17.5354 15.9913 17.3867 16.4082 17.1081C16.8252 16.8295 17.1501 16.4335 17.342 15.9703C17.5339 15.507 17.5841 14.9972 17.4863 14.5054C17.3885 14.0136 17.147 13.5618 16.7924 13.2073C16.4379 12.8527 15.9861 12.6112 15.4943 12.5134C15.0025 12.4156 14.4927 12.4658 14.0294 12.6577C13.5662 12.8496 13.1702 13.1745 12.8916 13.5915C12.613 14.0084 12.4643 14.4986 12.4643 15C12.4647 15.6723 12.7319 16.317 13.2073 16.7924C13.6827 17.2678 14.3274 17.535 14.9997 17.5354ZM14.9997 11.0945C15.7724 11.0945 16.5278 11.3236 17.1703 11.7529C17.8128 12.1822 18.3135 12.7924 18.6092 13.5063C18.905 14.2202 18.9823 15.0058 18.8316 15.7636C18.6808 16.5215 18.3087 17.2177 17.7623 17.7641C17.2159 18.3105 16.5198 18.6826 15.7619 18.8333C15.004 18.9841 14.2184 18.9067 13.5045 18.611C12.7906 18.3153 12.1804 17.8145 11.7511 17.172C11.3218 16.5295 11.0927 15.7742 11.0927 15.0014C11.0927 13.9652 11.5043 12.9715 12.237 12.2388C12.9697 11.5061 13.9635 11.0945 14.9997 11.0945ZM19.9713 10.941C19.9713 11.1215 19.9178 11.2979 19.8175 11.448C19.7172 11.598 19.5747 11.715 19.408 11.7841C19.2412 11.8531 19.0577 11.8712 18.8807 11.836C18.7037 11.8008 18.5411 11.7139 18.4135 11.5862C18.2858 11.4586 18.1989 11.296 18.1637 11.119C18.1285 10.942 18.1466 10.7585 18.2156 10.5917C18.2847 10.425 18.4017 10.2825 18.5518 10.1822C18.7018 10.0819 18.8783 10.0284 19.0587 10.0284C19.3008 10.0284 19.5329 10.1246 19.704 10.2957C19.8752 10.4668 19.9713 10.6989 19.9713 10.941Z" fill="#E5E5E5"/>
</svg>
