<svg width="40" height="40" viewBox="0 0 40 40" fill="none" xmlns="http://www.w3.org/2000/svg">
<path d="M1.07031 34.4159C1.07031 31.1786 3.53171 28.864 6.88671 28.864C7.72127 28.8292 8.55293 28.9823 9.31998 29.3119C10.087 29.6416 10.7696 30.1392 11.3172 30.7679L9.71197 32.2399C9.38381 31.8417 8.97023 31.5218 8.50165 31.304C8.03307 31.0862 7.52144 30.9759 7.0044 30.9813C6.08838 30.982 5.21013 31.3454 4.56285 31.9915C3.91562 32.6376 3.5524 33.5136 3.55311 34.4266C3.55382 35.3396 3.9184 36.215 4.56667 36.8602C5.2149 37.5053 6.0937 37.8673 7.00976 37.8666C7.5283 37.8716 8.0413 37.7595 8.5102 37.5388C8.9791 37.318 9.39181 36.9943 9.71729 36.592L11.3225 38.064C10.7761 38.6993 10.0918 39.2023 9.32139 39.535C8.55097 39.8676 7.71473 40.0212 6.87598 39.9839C3.53171 39.9679 1.07031 37.6479 1.07031 34.4159Z" fill="#E5E5E5"/>
<path d="M24.2823 39.7813L24.2716 33.36L21.0985 38.6453H19.9909L16.8232 33.4827V39.7813H14.4849V29.0507H16.5449L20.5795 35.7174L24.5444 29.0507H26.6099L26.626 39.7813H24.2823Z" fill="#E5E5E5"/>
<path d="M38.9597 36.7999C38.9597 38.8212 36.7445 39.9999 34.144 39.9999C32.6443 39.9991 31.17 39.6134 29.8633 38.8799L30.6338 37.0986C31.6077 37.6677 32.7154 37.9695 33.8444 37.9733C35.257 37.9733 36.4127 37.4399 36.4127 36.4532C36.4127 35.6426 35.6743 35.2426 34.5506 35.2426H31.9448V33.3759H34.3901C35.4068 33.3759 35.9954 32.9279 35.9954 32.2239C35.9954 31.3492 35.0429 30.8906 33.8283 30.8906C32.8149 30.8893 31.8175 31.1425 30.9281 31.6266L30.179 29.6906C31.3219 29.1074 32.5871 28.8022 33.8711 28.7999C36.386 28.7999 38.5263 29.9519 38.5263 31.8986C38.5291 32.3921 38.3817 32.8748 38.1038 33.2833C37.8258 33.6917 37.4303 34.0066 36.9692 34.1866C37.5426 34.3444 38.0479 34.6857 38.4076 35.1579C38.7673 35.6301 38.9613 36.207 38.9597 36.7999Z" fill="#E5E5E5"/>
<path d="M10.782 13.5631L9.71187 14.8218L8.07984 16.7791L1.87285 9.42446L8.07984 2.06447L9.72792 4.01647L10.7981 5.27515L11.4188 4.53913C11.5411 4.39329 11.6081 4.20923 11.6081 4.01913C11.6081 3.82903 11.5411 3.64497 11.4188 3.49913L8.71125 0.299133C8.63488 0.20926 8.53983 0.137047 8.43264 0.0875171C8.32545 0.0379867 8.20871 0.0123291 8.09056 0.0123291C7.97242 0.0123291 7.85568 0.0379867 7.74849 0.0875171C7.6413 0.137047 7.54621 0.20926 7.46984 0.299133L0.192684 8.90179C0.0683329 9.04672 0 9.23112 0 9.42178C0 9.61249 0.0683329 9.79689 0.192684 9.94177L7.45915 18.5551C7.53548 18.645 7.63058 18.7172 7.73777 18.7668C7.84495 18.8163 7.96169 18.8419 8.07984 18.8419C8.19798 18.8419 8.31472 18.8163 8.42191 18.7668C8.5291 18.7172 8.6242 18.645 8.70056 18.5551L11.4081 15.3551C11.5304 15.2093 11.5975 15.0252 11.5975 14.8351C11.5975 14.645 11.5304 14.461 11.4081 14.3151L10.782 13.5631ZM8.76475 5.16315L5.60774 8.89648C5.48341 9.04136 5.41509 9.2258 5.41509 9.41647C5.41509 9.60713 5.48341 9.79158 5.60774 9.93646L8.75939 13.6698L9.82956 12.4165L7.29864 9.41379L9.82424 6.40048L8.76475 5.16315Z" fill="#E5E5E5"/>
<path d="M13.4947 18.8428C13.3764 18.8426 13.2596 18.8168 13.1524 18.7671C13.0452 18.7173 12.9502 18.6448 12.874 18.5548L10.1664 15.3547C10.0441 15.2089 9.97705 15.0249 9.97705 14.8348C9.97705 14.6447 10.0441 14.4606 10.1664 14.3148L12.874 11.1148C12.9502 11.0247 13.0452 10.9522 13.1524 10.9025C13.2596 10.8528 13.3764 10.8269 13.4947 10.8268H18.9097C19.0646 10.827 19.2163 10.8712 19.3468 10.9544C19.4773 11.0376 19.5813 11.1562 19.6465 11.2962C19.7117 11.4363 19.7354 11.592 19.7149 11.745C19.6943 11.8981 19.6303 12.0421 19.5305 12.1601L14.1154 18.5601C14.0391 18.6502 13.9441 18.7226 13.8369 18.7724C13.7297 18.8221 13.6129 18.8479 13.4947 18.8481M11.8466 14.8268L13.4947 16.7788L17.1654 12.4268H13.8693L11.8466 14.8268Z" fill="#E5E5E5"/>
<path d="M28.1937 18.8425C28.0762 18.8427 27.9601 18.8169 27.8537 18.7672C27.7473 18.7174 27.6533 18.6448 27.5784 18.5545L22.1633 12.1545C22.0634 12.0365 21.9994 11.8925 21.9789 11.7394C21.9583 11.5864 21.982 11.4307 22.0472 11.2907C22.1124 11.1506 22.2164 11.032 22.3469 10.9488C22.4774 10.8657 22.6291 10.8214 22.784 10.8212H28.1937C28.3119 10.8213 28.4288 10.8472 28.536 10.8969C28.6431 10.9467 28.7382 11.0191 28.8144 11.1092L31.5701 14.3518C31.6985 14.5001 31.7692 14.6893 31.7692 14.8852C31.7692 15.081 31.6985 15.2703 31.5701 15.4185L28.8197 18.5812C28.7439 18.6682 28.6502 18.7381 28.545 18.7859C28.4398 18.8337 28.3254 18.8585 28.2097 18.8585M24.5337 12.4585L28.2151 16.8212L29.8899 14.8959L27.8245 12.4265L24.5337 12.4585Z" fill="#E5E5E5"/>
<path d="M18.9097 8.0378H13.4947C13.3764 8.03766 13.2596 8.01182 13.1524 7.96209C13.0452 7.91231 12.9502 7.83987 12.874 7.7498L10.1664 4.53913C10.0441 4.39329 9.97705 4.20923 9.97705 4.01913C9.97705 3.82903 10.0441 3.64497 10.1664 3.49913L12.874 0.299133C12.9503 0.20926 13.0454 0.137047 13.1526 0.0875171C13.2598 0.0379867 13.3765 0.0123291 13.4947 0.0123291C13.6128 0.0123291 13.7296 0.0379867 13.8368 0.0875171C13.9439 0.137047 14.039 0.20926 14.1154 0.299133L19.5305 6.69914C19.631 6.81655 19.6955 6.96034 19.7164 7.11331C19.7372 7.26623 19.7136 7.42197 19.6482 7.56191C19.5828 7.70184 19.4784 7.82006 19.3475 7.90254C19.2166 7.98502 19.0646 8.02826 18.9097 8.02713M13.8746 6.42713H17.1707L13.4947 2.06447L11.8466 4.01647L13.8746 6.42713Z" fill="#E5E5E5"/>
<path d="M28.1934 8.03733H22.7783C22.6235 8.03847 22.4715 7.99523 22.3406 7.91275C22.2097 7.83027 22.1053 7.71205 22.0399 7.57212C21.9745 7.43218 21.9509 7.27644 21.9717 7.12347C21.9926 6.97051 22.0571 6.82676 22.1577 6.70935L27.5727 0.288C27.649 0.197909 27.744 0.125469 27.8512 0.0757302C27.9584 0.0259906 28.0752 0.000147012 28.1934 0C28.3117 0.000147012 28.4284 0.0259906 28.5356 0.0757302C28.6429 0.125469 28.7379 0.197909 28.8141 0.288L31.527 3.488C31.643 3.62202 31.7028 3.79547 31.6939 3.97229C31.6849 4.1491 31.6079 4.31566 31.4789 4.43733L28.8034 7.73866C28.7272 7.82877 28.6321 7.90117 28.5249 7.95095C28.4178 8.00068 28.301 8.02652 28.1827 8.02666M24.5067 6.42667H27.8242L29.8522 4.02133L28.1934 2.064L24.5067 6.42667Z" fill="#E5E5E5"/>
<path d="M29.788 3.96263L27.5728 1.32796L28.8142 0.287964L30.8261 2.6773L31.8856 3.93596L33.9564 6.38928L32.212 6.83728L30.8529 5.2213L29.788 3.96263Z" fill="#E5E5E5"/>
<path d="M32.6726 11.6375L34.3795 12.1441L31.9342 14.9601L30.8587 16.2028L28.8039 18.5654L27.5786 17.5041L29.8206 14.9228L30.9015 13.6801L32.6726 11.6375Z" fill="#E5E5E5"/>
<path d="M35.7813 10.5331L35.6849 10.6451L35.4388 10.9278L33.7319 10.3945L32.1266 9.91445C31.9598 9.86136 31.8148 9.75567 31.7134 9.61328C31.6121 9.47094 31.5599 9.29958 31.5648 9.12508C31.5696 8.95059 31.6312 8.7824 31.7402 8.64583C31.8493 8.50921 31.9999 8.41165 32.1694 8.36783L33.2717 8.07447L35.0107 7.62646L35.3425 8.02115C35.4309 8.12588 35.4915 8.25115 35.5186 8.38536C35.5457 8.51957 35.5385 8.65841 35.4977 8.78912C35.4487 8.93655 35.3598 9.06758 35.2409 9.16782L35.3585 9.1998H35.3906C35.5167 9.2384 35.6314 9.30721 35.7247 9.40018C35.818 9.49315 35.887 9.60747 35.9257 9.73314C35.9633 9.86317 35.9677 10.0005 35.9388 10.1327C35.9098 10.2649 35.8484 10.3878 35.7598 10.4905" fill="#E5E5E5"/>
<path d="M39.8101 11.7336L33.9938 18.5549C33.9175 18.645 33.8225 18.7175 33.7153 18.7672C33.6081 18.817 33.4913 18.8428 33.373 18.8429C33.2526 18.8416 33.134 18.8137 33.0257 18.7611C32.9175 18.7085 32.8223 18.6326 32.747 18.5389L30.8635 16.203L29.8201 14.9336L27.562 12.1336L28.8248 11.1203L30.9009 13.691L31.9337 14.9709L33.3891 16.7736L37.7715 11.6323L35.4385 10.9389L35.0532 10.8216L33.7102 10.4163L32.2976 9.99497L32.1209 9.9416C31.9508 9.89455 31.8007 9.79318 31.6938 9.65302C31.587 9.51286 31.529 9.34167 31.529 9.16563C31.529 8.98955 31.587 8.81837 31.6938 8.67821C31.8007 8.53809 31.9508 8.43672 32.1209 8.38962L33.2232 8.09626L34.9569 7.64295L35.6578 7.46695L36.7655 7.17364L37.5574 6.96562L33.3891 2.08029L31.8909 3.93629L30.8528 5.22161L28.8248 7.7336L27.562 6.72028L29.788 3.96295L30.826 2.66695L32.7416 0.304287C32.8174 0.211717 32.9129 0.13711 33.0212 0.0858739C33.1295 0.0346379 33.2479 0.00805664 33.3677 0.00805664C33.4876 0.00805664 33.6059 0.0346379 33.7142 0.0858739C33.8225 0.13711 33.918 0.211717 33.9938 0.304287L39.6229 6.91762C39.7117 7.02212 39.773 7.14716 39.8011 7.28128C39.8291 7.4154 39.823 7.55443 39.7834 7.68564C39.7412 7.81563 39.6665 7.9328 39.5663 8.02609C39.4662 8.11938 39.3438 8.18578 39.2108 8.21894L36.9849 8.8056L35.3796 9.22695H35.4117L38.0872 10.0269L39.4249 10.4269C39.551 10.4655 39.6657 10.5344 39.7589 10.6273C39.8522 10.7203 39.9212 10.8346 39.9599 10.9603C40.0025 11.0913 40.011 11.2309 39.9849 11.3661C39.9587 11.5014 39.8985 11.6278 39.8101 11.7336Z" fill="#E5E5E5"/>
<path d="M36.7712 7.18392L35.6582 7.47275L36.7658 7.17859L36.7712 7.18392Z" fill="#E5E5E5"/>
<path d="M26.6206 23.2321H14.4849V24.848H26.6206V23.2321Z" fill="#E5E5E5"/>
</svg>
