<svg width="30" height="30" viewBox="0 0 30 30" fill="none" xmlns="http://www.w3.org/2000/svg">
<path d="M29 15C29 22.732 22.732 29 15 29C7.26801 29 1 22.732 1 15C1 7.26801 7.26801 1 15 1C22.732 1 29 7.26801 29 15Z" stroke="#E5E5E5" stroke-width="2"/>
<path fill-rule="evenodd" clip-rule="evenodd" d="M6.88091 14.742C11.2428 12.8415 14.1511 11.5885 15.606 10.9829C19.7614 9.25544 20.6293 8.95544 21.1874 8.94428C21.3944 8.94026 21.5974 9.00126 21.7679 9.1187C21.8875 9.22185 21.9638 9.36638 21.9814 9.52335C22.0114 9.71857 22.0198 9.91651 22.0065 10.1136C21.7818 12.4857 20.8065 18.2192 20.3111 20.8689C20.1018 21.9852 19.6888 22.3661 19.2884 22.4038C18.4204 22.4833 17.7535 21.8289 16.9163 21.2778C15.599 20.414 14.8553 19.8824 13.5772 19.034C12.0995 18.0573 13.0581 17.5257 13.8995 16.6522C14.12 16.4233 17.946 12.9406 18.0214 12.6252C18.0313 12.5786 18.0302 12.5304 18.018 12.4843C18.0059 12.4383 17.9832 12.3957 17.9516 12.3601C17.9058 12.3315 17.854 12.3139 17.8002 12.3088C17.7464 12.3037 17.6922 12.3113 17.6418 12.3308C17.5107 12.3596 15.4074 13.7499 11.3321 16.5015C10.7349 16.9117 10.1939 17.1117 9.70928 17.1015C9.17487 17.0889 8.14788 16.7987 7.38323 16.5433C6.44695 16.2392 5.70882 16.0787 5.76742 15.5666C5.80184 15.2987 6.173 15.0238 6.88091 14.742Z" fill="#E5E5E5"/>
</svg>
