<svg width="30" height="30" viewBox="0 0 30 30" fill="none" xmlns="http://www.w3.org/2000/svg">
<path d="M29 15C29 22.732 22.732 29 15 29C7.26801 29 1 22.732 1 15C1 7.26801 7.26801 1 15 1C22.732 1 29 7.26801 29 15Z" stroke="#E5E5E5" stroke-width="2"/>
<path d="M15.5495 20.5312C9.73369 20.5312 6.41834 16.5433 6.27881 9.90698H9.1909C9.28718 14.7768 11.4346 16.8405 13.1356 17.2661V9.90698H15.8802V14.107C17.5546 13.927 19.3253 12.014 19.9197 9.90698H22.6644C22.2067 12.5009 20.2923 14.4154 18.9318 15.2023C19.9959 15.7307 20.9357 16.479 21.689 17.3976C22.4424 18.3162 22.9922 19.3843 23.3021 20.5312H20.2825C19.6337 18.5107 18.0165 16.9479 15.8802 16.7358V20.5312H15.5495Z" fill="#E5E5E5"/>
</svg>
